<svg version="1" xmlns="http://www.w3.org/2000/svg" width="682.667" height="682.667" viewBox="0 0 512.000000 512.000000"><path d="M69.8 147.7L9 262.3V338h137v71h94v-71h7c4.8 0 7.2.4 7.4 1.3.2.6 1.6 5.8 3.1 11.4 8.9 33.4 33.1 64.2 60.1 76.4 3.9 1.8 6.2 3.4 5.9 4.1-.4 1.1-15.3 50-17.1 56.1-.5 1.6.4 1.7 13.3 1.5l13.8-.3 7.1-24.9 7-25 25-.1c25.9-.2 32.2-.9 49.3-5.5 10.8-2.9 26.5-10.9 34.4-17.5 19.3-16 34-43.5 38.3-71.5.7-5.2 1.4-9.8 1.4-10.3 0-.4-16-.7-35.5-.7H425l-.6 2.7c-.3 1.6-1.3 5.3-2.1 8.3-4.7 17.2-15.8 29.3-31.4 34.1-8.8 2.7-25.9 2.4-25.9-.5 0-1.8 41.7-151.7 42.4-152.4 1.2-1.1 7.4 6 10.7 12.2 1.8 3.3 4.3 9.5 5.5 13.6l2.2 7.5 35.6.3c22.3.1 35.6-.1 35.6-.7 0-4-4.8-24.1-7.5-31.9-5.1-14.1-11.4-24.1-22.5-35.3-10.4-10.5-19.8-16.9-33.8-22.9-6.9-3-8.6-4.2-8.4-5.7.2-1 3.3-11.8 6.8-24 3.5-12.1 6.4-22.4 6.4-22.7 0-.3-5.8-.6-12.9-.6h-12.8l-6.2 21.7c-3.4 11.9-6.3 21.8-6.5 22.1-.2.2-3-.1-6.2-.7-7.2-1.4-29.6-1.4-38.9-.1-30.3 4.3-55.9 19.5-74.5 44.2-11.3 15-18.4 30-23.5 50.3l-3.2 13-6.7.3-6.6.3V33h-54.7l-54.8.1-60.7 114.6zm79.2 53.8V266h-32.1c-27.3 0-32-.2-31.7-1.4.6-2.9 62.2-127.6 63-127.6.4 0 .8 29 .8 64.5zm233.6 17.2c-3.1 13.2-40.1 146.3-40.7 146.3-1.4 0-7.9-11.5-10.9-19-7.6-20-8.9-55.4-2.9-79.9 5.5-22.3 16.2-39.1 28.7-45.5 6.6-3.4 11-4.4 19.6-4.5l6.8-.1-.6 2.7z"/></svg>